<svg xmlns="http://www.w3.org/2000/svg" viewBox="0 0 512 512">
  <defs>
    <linearGradient id="g" x1="0%" y1="0%" x2="100%" y2="100%">
      <stop offset="0%" style="stop-color:#EADDFF"/>
      <stop offset="100%" style="stop-color:#6750A4"/>
    </linearGradient>
  </defs>
  <rect width="512" height="512" rx="96" fill="url(#g)"/>
  <!-- Книга -->
  <path d="M140 120h180a30 30 0 0 1 30 30v240a30 30 0 0 1-30 30H140a30 30 0 0 1-30-30V150a30 30 0 0 1 30-30z" fill="#fff" opacity=".9"/>
  <path d="M170 180h120v20H170zm0 50h120v20H170zm0 50h80v20h-80z" fill="#6750A4"/>
  <!-- Закладка -->
  <path d="M340 100l40 0 0 160 -40 -30 -40 30 0 -160z" fill="#D0BCFF"/>
  </svg>